<svg width="1401" height="495" viewBox="0 0 1401 495" fill="none" xmlns="http://www.w3.org/2000/svg">
<path d="M530.191 256.5V411.5L660.603 473L773.361 404.5V256.5L656.617 213L530.191 256.5ZM530.191 256.5L660.603 317.5" stroke="#CFCFCF" stroke-width="2"/>
<path d="M661.742 317.5L773.361 257.5" stroke="#CFCFCF" stroke-width="2"/>
<path d="M661.742 317.5V472.5" stroke="#CFCFCF" stroke-width="2"/>
<path d="M738.917 306C726.138 309.387 717.888 313.994 707.934 320.643C704.329 323.051 696.238 326.286 694.476 329.734C692.053 334.475 710.593 333.259 712.315 333.218C726.024 332.892 739.262 330.303 752.844 329.734C760.248 329.424 742.585 340.045 742.282 340.24C725.745 350.87 707.854 360.382 691.034 370.778C688.989 372.042 680.492 377.492 678.046 379.488C677.508 379.927 676.286 380.605 676.872 381.012C679.621 382.925 684.351 379.534 688.061 378.726C701.122 375.882 719.23 370.861 733.206 372.357C741.657 373.262 727.322 387.601 725.773 389.504C720.077 396.506 707.093 408.204 708.795 416.885C709.852 422.281 736.527 404.523 738.604 403.222C742.386 400.854 745.785 398.651 749.715 396.472C753.12 394.584 743.059 400.382 739.622 402.242C727.925 408.572 709.693 415.098 701.049 423.69C700.358 424.376 703.511 423.749 704.648 423.472C712.281 421.613 719.74 419.26 727.025 416.831C732.906 414.87 738.593 412.62 744.551 410.843" stroke="#BDBDBD" stroke-linecap="round" stroke-linejoin="round"/>
<path d="M645.541 320.922C629.58 323.339 612.321 318.128 596.898 315.307C586.819 313.464 576.79 311.249 566.595 309.803C564.071 309.445 558.538 308.399 555.778 309.47C552.231 310.846 574.287 326.997 574.977 327.483C587.646 336.398 603.827 345.598 611.154 358.061C615.009 364.618 603.269 362.284 599.764 361.619C588.563 359.494 578.24 355.564 568.601 350.722C559.341 346.07 565.505 348.191 570.464 349.777C585.698 354.65 601.343 358.542 616.742 363.064C622.879 364.866 640.036 370.58 633.506 371.07C621.825 371.947 606.802 366.863 595.824 364.843C584.541 362.768 576.572 361.376 565.306 360.062C563.882 359.896 550.481 357.724 547.969 359.284C545.851 360.599 574.518 382.429 576.481 383.969C576.844 384.253 588.759 391.805 585.651 394.309C583.013 396.435 574.575 396.171 571.252 396.422C554.474 397.688 572.883 398.445 579.347 399.035C586.344 399.674 592.728 400.186 599.692 400.925C602.038 401.174 604.397 401.376 606.713 401.759C607.329 401.861 608.989 402.142 608.432 402.371C607.199 402.877 605.671 402.712 604.277 402.76C592.844 403.157 581.318 402.808 569.891 402.482C565.844 402.367 555.744 401.079 557.855 403.761C566.04 414.155 591.089 419.348 604.85 423.331C610.589 424.991 616.282 426.33 622.33 427" stroke="#BDBDBD" stroke-linecap="round" stroke-linejoin="round"/>
<path d="M646.946 230C642.402 233.078 637.972 234.182 632.852 236.336C621.793 240.988 612.359 247.876 601.643 252.973C600.116 253.699 595.603 253.941 596.945 254.93C598.744 256.255 607.613 255.002 609.641 254.878C629.296 253.685 648.055 247.206 667.64 245.349C669.403 245.182 673.909 244.731 672.898 246.071C668.357 252.088 658.182 256.812 651.644 260.493C643.349 265.163 616.336 274.993 625.805 272.958C644.184 269.008 660.345 253.924 675.75 244.577C685.146 238.876 677.878 245.811 674.687 248.955C664.203 259.289 652.811 269.222 643.535 280.53C639.493 285.456 642.812 284.537 647.058 282.847C658.569 278.267 669.484 272.565 681.175 268.322C683.388 267.519 691.292 263.932 694.319 264.768C695.344 265.051 686.016 273.887 685.761 274.143C682.384 277.531 679.546 281.12 676.589 284.805C676.189 285.303 674.69 286.419 674.911 285.835C676.125 282.63 679.528 277.784 681.287 275.43C686.483 268.477 692.536 260.444 699.632 254.93C702.799 252.469 694.066 260.585 691.242 263.377C685.39 269.164 701.253 262.503 703.771 261.626C705.691 260.957 717.86 258.91 714.621 262.244C708.485 268.56 702.099 276.405 694.71 281.508C691.267 283.887 700.28 275.452 703.323 272.649" stroke="#BDBDBD" stroke-linecap="round" stroke-linejoin="round"/>
<path d="M529.152 257L662.168 318V473L529.152 409.5V257Z" fill="#56CCF2" fill-opacity="0.2"/>
<path d="M771.802 403.5V383L797.782 426.5L711.01 440.5L771.802 403.5Z" fill="#4F4F4F" fill-opacity="0.05"/>
<path d="M812.85 324.796V445.219L914.281 493L1001.98 439.781V324.796L911.18 291L812.85 324.796ZM812.85 324.796L914.281 372.188" stroke="#CFCFCF" stroke-width="2"/>
<path d="M915.166 372.189L1001.98 325.573" stroke="#CFCFCF" stroke-width="2"/>
<path d="M915.166 372.188V492.612" stroke="#CFCFCF" stroke-width="2"/>
<path d="M975.191 363.254C965.251 365.885 958.835 369.465 951.092 374.631C948.289 376.501 941.996 379.015 940.625 381.693C938.741 385.377 953.161 384.432 954.5 384.4C965.162 384.147 975.459 382.136 986.023 381.693C991.781 381.452 978.043 389.704 977.807 389.856C964.946 398.114 951.03 405.504 937.948 413.582C936.358 414.564 929.749 418.798 927.846 420.349C927.428 420.689 926.478 421.216 926.933 421.533C929.071 423.018 932.75 420.384 935.635 419.756C945.794 417.547 959.878 413.646 970.748 414.808C977.322 415.511 966.172 426.651 964.967 428.13C960.537 433.57 950.438 442.658 951.762 449.403C952.584 453.595 973.331 439.799 974.947 438.788C977.888 436.949 980.532 435.236 983.589 433.544C986.237 432.077 978.412 436.582 975.738 438.027C966.641 442.944 952.461 448.015 945.737 454.69C945.2 455.223 947.653 454.736 948.537 454.521C954.474 453.077 960.275 451.248 965.941 449.361C970.515 447.838 974.938 446.089 979.572 444.709" stroke="#BDBDBD" stroke-linecap="round" stroke-linejoin="round"/>
<path d="M902.566 374.847C890.152 376.725 876.728 372.676 864.733 370.485C856.893 369.052 849.093 367.332 841.164 366.208C839.201 365.93 834.897 365.117 832.75 365.949C829.992 367.018 847.146 379.567 847.683 379.944C857.537 386.871 870.122 394.018 875.821 403.701C878.819 408.795 869.688 406.982 866.961 406.465C858.249 404.814 850.22 401.761 842.724 397.999C835.521 394.385 840.316 396.033 844.172 397.265C856.021 401.051 868.189 404.075 880.167 407.588C884.94 408.988 898.284 413.427 893.205 413.808C884.12 414.49 872.436 410.54 863.897 408.971C855.122 407.358 848.924 406.277 840.161 405.256C839.053 405.127 828.631 403.439 826.677 404.651C825.03 405.673 847.326 422.633 848.853 423.829C849.135 424.05 858.402 429.918 855.985 431.863C853.933 433.515 847.37 433.31 844.785 433.505C831.736 434.488 846.054 435.076 851.082 435.535C856.524 436.031 861.489 436.429 866.906 437.003C868.73 437.197 870.565 437.354 872.366 437.651C872.846 437.731 874.137 437.949 873.703 438.126C872.745 438.52 871.556 438.391 870.472 438.429C861.579 438.737 852.615 438.466 843.727 438.213C840.579 438.123 832.724 437.123 834.366 439.206C840.732 447.282 860.214 451.317 870.918 454.411C875.381 455.701 879.809 456.74 884.513 457.261" stroke="#BDBDBD" stroke-linecap="round" stroke-linejoin="round"/>
<path d="M903.659 304.208C900.124 306.599 896.679 307.456 892.697 309.13C884.095 312.744 876.758 318.096 868.424 322.056C867.236 322.62 863.726 322.808 864.77 323.576C866.169 324.606 873.067 323.632 874.644 323.536C889.931 322.609 904.521 317.575 919.754 316.133C921.125 316.003 924.63 315.652 923.844 316.693C920.312 321.368 912.398 325.038 907.313 327.898C900.861 331.527 879.851 339.163 887.216 337.582C901.511 334.514 914.08 322.794 926.062 315.533C933.37 311.104 927.717 316.491 925.236 318.934C917.081 326.962 908.221 334.68 901.006 343.465C897.862 347.293 900.443 346.579 903.746 345.266C912.699 341.708 921.188 337.277 930.282 333.981C932.002 333.357 938.15 330.57 940.504 331.22C941.302 331.44 934.047 338.304 933.849 338.503C931.222 341.136 929.015 343.924 926.715 346.787C926.404 347.173 925.237 348.041 925.41 347.587C926.354 345.097 929 341.332 930.369 339.503C934.41 334.101 939.118 327.86 944.637 323.576C947.1 321.664 940.308 327.97 938.112 330.139C933.56 334.635 945.898 329.46 947.856 328.779C949.35 328.259 958.815 326.668 956.295 329.259C951.522 334.166 946.556 340.26 940.809 344.225C938.131 346.073 945.141 339.52 947.508 337.342" stroke="#BDBDBD" stroke-linecap="round" stroke-linejoin="round"/>
<path d="M812.85 325L914.69 372.5V493L812.85 446V325Z" fill="#56CCF2" fill-opacity="0.2"/>
<path d="M1003.02 439V418.5L1029 462L942.229 476L1003.02 439Z" fill="#4F4F4F" fill-opacity="0.05"/>
<path d="M367.039 335.59V419.648L437.818 453L499.015 415.852V335.59L435.654 312L367.039 335.59ZM367.039 335.59L437.818 368.671" stroke="#CFCFCF" stroke-width="2"/>
<path d="M499.535 415.5V395L525.514 438.5L438.742 452.5L499.535 415.5Z" fill="#4F4F4F" fill-opacity="0.05"/>
<path d="M438.436 368.671L499.015 336.133" stroke="#CFCFCF" stroke-width="2"/>
<path d="M438.436 368.671V452.729" stroke="#CFCFCF" stroke-width="2"/>
<path d="M480.321 362.435C473.385 364.271 468.908 366.77 463.505 370.376C461.549 371.681 457.158 373.436 456.201 375.306C454.886 377.877 464.948 377.217 465.883 377.195C473.323 377.018 480.508 375.614 487.88 375.306C491.898 375.137 482.311 380.898 482.147 381.003C473.172 386.768 463.462 391.926 454.333 397.564C453.223 398.25 448.611 401.205 447.284 402.288C446.992 402.526 446.329 402.893 446.647 403.114C448.139 404.151 450.706 402.313 452.719 401.874C459.808 400.332 469.636 397.609 477.221 398.421C481.808 398.911 474.028 406.687 473.187 407.72C470.095 411.517 463.049 417.86 463.972 422.569C464.546 425.495 479.023 415.864 480.151 415.159C482.203 413.875 484.048 412.68 486.181 411.498C488.029 410.474 482.569 413.619 480.703 414.627C474.355 418.06 464.46 421.599 459.768 426.259C459.393 426.631 461.105 426.291 461.722 426.141C465.864 425.133 469.913 423.856 473.866 422.539C477.058 421.476 480.145 420.255 483.378 419.292" stroke="#BDBDBD" stroke-linecap="round" stroke-linejoin="round"/>
<path d="M429.643 370.527C420.981 371.838 411.613 369.012 403.243 367.482C397.773 366.482 392.33 365.281 386.797 364.497C385.427 364.303 382.424 363.735 380.926 364.316C379.001 365.062 390.971 373.822 391.346 374.085C398.222 378.92 407.004 383.909 410.98 390.668C413.073 394.224 406.701 392.958 404.798 392.597C398.719 391.445 393.116 389.314 387.885 386.688C382.859 384.165 386.205 385.315 388.896 386.175C397.164 388.818 405.655 390.929 414.013 393.381C417.344 394.358 426.656 397.457 423.111 397.723C416.772 398.198 408.618 395.441 402.66 394.346C396.537 393.22 392.211 392.466 386.097 391.753C385.324 391.663 378.051 390.485 376.688 391.331C375.538 392.044 391.097 403.883 392.162 404.718C392.359 404.872 398.825 408.967 397.139 410.325C395.707 411.478 391.127 411.335 389.324 411.471C380.218 412.158 390.209 412.568 393.717 412.888C397.515 413.235 400.98 413.513 404.759 413.913C406.033 414.048 407.313 414.158 408.57 414.366C408.904 414.421 409.805 414.573 409.503 414.697C408.834 414.972 408.004 414.882 407.248 414.908C401.043 415.124 394.787 414.934 388.585 414.758C386.389 414.695 380.907 413.997 382.053 415.451C386.495 421.088 400.09 423.904 407.559 426.064C410.674 426.965 413.764 427.69 417.046 428.054" stroke="#BDBDBD" stroke-linecap="round" stroke-linejoin="round"/>
<path d="M430.406 321.219C427.939 322.888 425.535 323.487 422.756 324.655C416.754 327.178 411.634 330.913 405.818 333.677C404.989 334.071 402.54 334.203 403.268 334.739C404.245 335.458 409.058 334.778 410.159 334.711C420.826 334.064 431.007 330.55 441.637 329.543C442.593 329.453 445.039 329.208 444.49 329.934C442.026 333.198 436.504 335.76 432.955 337.756C428.453 340.289 413.792 345.619 418.931 344.516C428.906 342.374 437.678 334.193 446.038 329.124C451.138 326.033 447.193 329.794 445.462 331.499C439.771 337.103 433.589 342.49 428.554 348.622C426.36 351.294 428.162 350.795 430.466 349.879C436.714 347.395 442.637 344.303 448.983 342.002C450.184 341.566 454.474 339.621 456.116 340.074C456.673 340.228 451.61 345.019 451.472 345.158C449.639 346.996 448.099 348.942 446.494 350.94C446.277 351.21 445.463 351.816 445.583 351.499C446.242 349.761 448.089 347.133 449.043 345.856C451.863 342.086 455.148 337.729 459 334.739C460.719 333.404 455.979 337.806 454.447 339.32C451.27 342.458 459.88 338.846 461.246 338.37C462.288 338.007 468.893 336.897 467.135 338.705C463.805 342.131 460.339 346.385 456.329 349.153C454.46 350.442 459.351 345.868 461.003 344.348" stroke="#BDBDBD" stroke-linecap="round" stroke-linejoin="round"/>
<path d="M366 335L438.743 368.5V453L366 418.5V335Z" fill="#27AAE1" fill-opacity="0.2"/>
<path d="M320.672 107H314.484L307.752 96.1719L305.449 97.8242V107H300V81.3008H305.449V93.0605L307.594 90.0371L314.555 81.3008H320.602L311.637 92.6738L320.672 107ZM341.625 107H336.264V95.5215C336.264 92.6855 335.209 91.2676 333.1 91.2676C331.6 91.2676 330.516 91.7773 329.848 92.7969C329.18 93.8164 328.846 95.4688 328.846 97.7539V107H323.484V79.6484H328.846V85.2207C328.846 85.6543 328.805 86.6738 328.723 88.2793L328.6 89.8613H328.881C330.076 87.9395 331.975 86.9785 334.576 86.9785C336.885 86.9785 338.637 87.5996 339.832 88.8418C341.027 90.084 341.625 91.8652 341.625 94.1855V107ZM351.416 97.1387C351.416 99.084 351.732 100.555 352.365 101.551C353.01 102.547 354.053 103.045 355.494 103.045C356.924 103.045 357.949 102.553 358.57 101.568C359.203 100.572 359.52 99.0957 359.52 97.1387C359.52 95.1934 359.203 93.7344 358.57 92.7617C357.938 91.7891 356.9 91.3027 355.459 91.3027C354.029 91.3027 352.998 91.7891 352.365 92.7617C351.732 93.7227 351.416 95.1816 351.416 97.1387ZM365.004 97.1387C365.004 100.338 364.16 102.84 362.473 104.645C360.785 106.449 358.436 107.352 355.424 107.352C353.537 107.352 351.873 106.941 350.432 106.121C348.99 105.289 347.883 104.1 347.109 102.553C346.336 101.006 345.949 99.2012 345.949 97.1387C345.949 93.9277 346.787 91.4316 348.463 89.6504C350.139 87.8691 352.494 86.9785 355.529 86.9785C357.416 86.9785 359.08 87.3887 360.521 88.209C361.963 89.0293 363.07 90.207 363.844 91.7422C364.617 93.2773 365.004 95.0762 365.004 97.1387ZM359.52 85.1855C357.68 84.0957 356.309 83.0645 355.406 82.0918C354.492 83.041 353.15 84.0723 351.381 85.1855H347.812V84.7109C350.027 82.4961 351.527 80.7324 352.312 79.4199H358.588C358.951 80.0293 359.578 80.8613 360.469 81.916C361.371 82.959 362.244 83.8906 363.088 84.7109V85.1855H359.52ZM387.574 107H382.213V95.5215C382.213 94.1035 381.961 93.043 381.457 92.3398C380.953 91.625 380.15 91.2676 379.049 91.2676C377.549 91.2676 376.465 91.7715 375.797 92.7793C375.129 93.7754 374.795 95.4336 374.795 97.7539V107H369.434V87.3477H373.529L374.25 89.8613H374.549C375.146 88.9121 375.967 88.1973 377.01 87.7168C378.064 87.2246 379.26 86.9785 380.596 86.9785C382.881 86.9785 384.615 87.5996 385.799 88.8418C386.982 90.0723 387.574 91.8535 387.574 94.1855V107ZM410.197 87.3477V90.0723L407.121 90.8633C407.684 91.7422 407.965 92.7266 407.965 93.8164C407.965 95.9258 407.227 97.5723 405.75 98.7559C404.285 99.9277 402.246 100.514 399.633 100.514L398.666 100.461L397.875 100.373C397.324 100.795 397.049 101.264 397.049 101.779C397.049 102.553 398.033 102.939 400.002 102.939H403.342C405.498 102.939 407.139 103.402 408.264 104.328C409.4 105.254 409.969 106.613 409.969 108.406C409.969 110.703 409.008 112.484 407.086 113.75C405.176 115.016 402.428 115.648 398.842 115.648C396.1 115.648 394.002 115.168 392.549 114.207C391.107 113.258 390.387 111.922 390.387 110.199C390.387 109.016 390.756 108.025 391.494 107.229C392.232 106.432 393.316 105.863 394.746 105.523C394.195 105.289 393.715 104.908 393.305 104.381C392.895 103.842 392.689 103.273 392.689 102.676C392.689 101.926 392.906 101.305 393.34 100.812C393.773 100.309 394.4 99.8164 395.221 99.3359C394.189 98.8906 393.369 98.1758 392.76 97.1914C392.162 96.207 391.863 95.0469 391.863 93.7109C391.863 91.5664 392.561 89.9082 393.955 88.7363C395.35 87.5645 397.342 86.9785 399.932 86.9785C400.482 86.9785 401.133 87.0312 401.883 87.1367C402.645 87.2305 403.131 87.3008 403.342 87.3477H410.197ZM395.027 109.777C395.027 110.516 395.379 111.096 396.082 111.518C396.797 111.939 397.793 112.15 399.07 112.15C400.992 112.15 402.498 111.887 403.588 111.359C404.678 110.832 405.223 110.111 405.223 109.197C405.223 108.459 404.9 107.949 404.256 107.668C403.611 107.387 402.615 107.246 401.268 107.246H398.49C397.506 107.246 396.68 107.475 396.012 107.932C395.355 108.4 395.027 109.016 395.027 109.777ZM396.979 93.7812C396.979 94.8477 397.219 95.6914 397.699 96.3125C398.191 96.9336 398.936 97.2441 399.932 97.2441C400.939 97.2441 401.678 96.9336 402.146 96.3125C402.615 95.6914 402.85 94.8477 402.85 93.7812C402.85 91.4141 401.877 90.2305 399.932 90.2305C397.963 90.2305 396.979 91.4141 396.979 93.7812ZM431.08 103.08C432.018 103.08 433.143 102.875 434.455 102.465V106.455C433.119 107.053 431.479 107.352 429.533 107.352C427.389 107.352 425.824 106.812 424.84 105.734C423.867 104.645 423.381 103.016 423.381 100.848V91.373H420.814V89.1055L423.768 87.3125L425.314 83.1641H428.742V87.3477H434.244V91.373H428.742V100.848C428.742 101.609 428.953 102.172 429.375 102.535C429.809 102.898 430.377 103.08 431.08 103.08ZM443.807 107H438.445V87.3477H443.807V107ZM440.449 85.1855C439.711 84.6699 438.627 83.8379 437.197 82.6895C435.768 81.5293 434.654 80.5625 433.857 79.7891V79.4199H439.869C440.607 80.6035 441.984 82.3672 444 84.7109V85.1855H440.449ZM467.045 107H461.684V95.5215C461.684 94.1035 461.443 93.043 460.963 92.3398C460.494 91.625 459.75 91.2676 458.73 91.2676C457.359 91.2676 456.363 91.7715 455.742 92.7793C455.121 93.7871 454.811 95.4453 454.811 97.7539V107H449.449V87.3477H453.545L454.266 89.8613H454.564C455.092 88.959 455.854 88.2559 456.85 87.752C457.846 87.2363 458.988 86.9785 460.277 86.9785C463.219 86.9785 465.211 87.9395 466.254 89.8613H466.729C467.256 88.9473 468.029 88.2383 469.049 87.7344C470.08 87.2305 471.24 86.9785 472.529 86.9785C474.756 86.9785 476.438 87.5527 477.574 88.7012C478.723 89.8379 479.297 91.666 479.297 94.1855V107H473.918V95.5215C473.918 94.1035 473.678 93.043 473.197 92.3398C472.729 91.625 471.984 91.2676 470.965 91.2676C469.652 91.2676 468.668 91.7363 468.012 92.6738C467.367 93.6113 467.045 95.0996 467.045 97.1387V107ZM502.447 103.08C503.385 103.08 504.51 102.875 505.822 102.465V106.455C504.486 107.053 502.846 107.352 500.9 107.352C498.756 107.352 497.191 106.812 496.207 105.734C495.234 104.645 494.748 103.016 494.748 100.848V91.373H492.182V89.1055L495.135 87.3125L496.682 83.1641H500.109V87.3477H505.611V91.373H500.109V100.848C500.109 101.609 500.32 102.172 500.742 102.535C501.176 102.898 501.744 103.08 502.447 103.08ZM527.953 107H522.592V95.5215C522.592 92.6855 521.537 91.2676 519.428 91.2676C517.928 91.2676 516.844 91.7773 516.176 92.7969C515.508 93.8164 515.174 95.4688 515.174 97.7539V107H509.812V79.6484H515.174V85.2207C515.174 85.6543 515.133 86.6738 515.051 88.2793L514.928 89.8613H515.209C516.404 87.9395 518.303 86.9785 520.904 86.9785C523.213 86.9785 524.965 87.5996 526.16 88.8418C527.355 90.084 527.953 91.8652 527.953 94.1855V107ZM545.953 107L544.916 104.328H544.775C543.873 105.465 542.941 106.256 541.98 106.701C541.031 107.135 539.789 107.352 538.254 107.352C536.367 107.352 534.879 106.812 533.789 105.734C532.711 104.656 532.172 103.121 532.172 101.129C532.172 99.043 532.898 97.5078 534.352 96.5234C535.816 95.5273 538.02 94.9766 540.961 94.8711L544.371 94.7656V93.9043C544.371 91.9121 543.352 90.916 541.312 90.916C539.742 90.916 537.896 91.3906 535.775 92.3398L534 88.7188C536.262 87.5352 538.77 86.9434 541.523 86.9434C544.16 86.9434 546.182 87.5176 547.588 88.666C548.994 89.8145 549.697 91.5605 549.697 93.9043V107H545.953ZM544.371 97.8945L542.297 97.9648C540.738 98.0117 539.578 98.293 538.816 98.8086C538.055 99.3242 537.674 100.109 537.674 101.164C537.674 102.676 538.541 103.432 540.275 103.432C541.518 103.432 542.508 103.074 543.246 102.359C543.996 101.645 544.371 100.695 544.371 99.5117V97.8945ZM548.027 85.1855H545.18C543.867 84.3066 542.631 83.334 541.471 82.2676C540.135 83.4512 538.898 84.4238 537.762 85.1855H534.914V84.7109C536.227 83.1875 537.486 81.5469 538.693 79.7891H544.23C544.852 80.7031 545.555 81.6641 546.34 82.6719C547.137 83.668 547.699 84.3477 548.027 84.7109V85.1855ZM546.463 81.3008C547.459 80.2344 548.268 79.0566 548.889 77.7676H553.125V78.1367C552.34 79.1797 551.01 80.3867 549.135 81.7578H546.463V81.3008ZM552.422 87.3477H558.293L562.002 98.4043C562.318 99.3652 562.535 100.502 562.652 101.814H562.758C562.887 100.607 563.139 99.4707 563.514 98.4043L567.152 87.3477H572.9L564.586 109.514C563.824 111.564 562.734 113.1 561.316 114.119C559.91 115.139 558.264 115.648 556.377 115.648C555.451 115.648 554.543 115.549 553.652 115.35V111.096C554.297 111.248 555 111.324 555.762 111.324C556.711 111.324 557.537 111.031 558.24 110.445C558.955 109.871 559.512 108.998 559.91 107.826L560.227 106.859L552.422 87.3477ZM593.361 103.08C594.299 103.08 595.424 102.875 596.736 102.465V106.455C595.4 107.053 593.76 107.352 591.814 107.352C589.67 107.352 588.105 106.812 587.121 105.734C586.148 104.645 585.662 103.016 585.662 100.848V91.373H583.096V89.1055L586.049 87.3125L587.596 83.1641H591.023V87.3477H596.525V91.373H591.023V100.848C591.023 101.609 591.234 102.172 591.656 102.535C592.09 102.898 592.658 103.08 593.361 103.08ZM608.865 90.793C607.729 90.793 606.838 91.1562 606.193 91.8828C605.549 92.5977 605.18 93.6172 605.086 94.9414H612.609C612.586 93.6172 612.24 92.5977 611.572 91.8828C610.904 91.1562 610.002 90.793 608.865 90.793ZM609.621 107.352C606.457 107.352 603.984 106.479 602.203 104.732C600.422 102.986 599.531 100.514 599.531 97.3145C599.531 94.0215 600.352 91.4785 601.992 89.6855C603.645 87.8809 605.924 86.9785 608.83 86.9785C611.607 86.9785 613.77 87.7695 615.316 89.3516C616.863 90.9336 617.637 93.1191 617.637 95.9082V98.5098H604.963C605.021 100.033 605.473 101.223 606.316 102.078C607.16 102.934 608.344 103.361 609.867 103.361C611.051 103.361 612.17 103.238 613.225 102.992C614.279 102.746 615.381 102.354 616.529 101.814V105.963C615.592 106.432 614.59 106.777 613.523 107C612.457 107.234 611.156 107.352 609.621 107.352ZM613.031 85.1855C611.191 84.0957 609.82 83.0645 608.918 82.0918C608.004 83.041 606.662 84.0723 604.893 85.1855H601.324V84.7109C603.539 82.4961 605.039 80.7324 605.824 79.4199H612.1C612.463 80.0293 613.09 80.8613 613.98 81.916C614.883 82.959 615.756 83.8906 616.6 84.7109V85.1855H613.031ZM640.137 107H634.775V95.5215C634.775 94.1035 634.523 93.043 634.02 92.3398C633.516 91.625 632.713 91.2676 631.611 91.2676C630.111 91.2676 629.027 91.7715 628.359 92.7793C627.691 93.7754 627.357 95.4336 627.357 97.7539V107H621.996V87.3477H626.092L626.812 89.8613H627.111C627.709 88.9121 628.529 88.1973 629.572 87.7168C630.627 87.2246 631.822 86.9785 633.158 86.9785C635.443 86.9785 637.178 87.5996 638.361 88.8418C639.545 90.0723 640.137 91.8535 640.137 94.1855V107ZM673.148 107H667.787V95.5215C667.787 94.1035 667.535 93.043 667.031 92.3398C666.527 91.625 665.725 91.2676 664.623 91.2676C663.123 91.2676 662.039 91.7715 661.371 92.7793C660.703 93.7754 660.369 95.4336 660.369 97.7539V107H655.008V87.3477H659.104L659.824 89.8613H660.123C660.721 88.9121 661.541 88.1973 662.584 87.7168C663.639 87.2246 664.834 86.9785 666.17 86.9785C668.455 86.9785 670.189 87.5996 671.373 88.8418C672.557 90.0723 673.148 91.8535 673.148 94.1855V107ZM696.809 107H691.447V95.5215C691.447 92.6855 690.393 91.2676 688.283 91.2676C686.783 91.2676 685.699 91.7773 685.031 92.7969C684.363 93.8164 684.029 95.4688 684.029 97.7539V107H678.668V79.6484H684.029V85.2207C684.029 85.6543 683.988 86.6738 683.906 88.2793L683.783 89.8613H684.064C685.26 87.9395 687.158 86.9785 689.76 86.9785C692.068 86.9785 693.82 87.5996 695.016 88.8418C696.211 90.084 696.809 91.8652 696.809 94.1855V107ZM714.809 107L713.771 104.328H713.631C712.729 105.465 711.797 106.256 710.836 106.701C709.887 107.135 708.645 107.352 707.109 107.352C705.223 107.352 703.734 106.812 702.645 105.734C701.566 104.656 701.027 103.121 701.027 101.129C701.027 99.043 701.754 97.5078 703.207 96.5234C704.672 95.5273 706.875 94.9766 709.816 94.8711L713.227 94.7656V93.9043C713.227 91.9121 712.207 90.916 710.168 90.916C708.598 90.916 706.752 91.3906 704.631 92.3398L702.855 88.7188C705.117 87.5352 707.625 86.9434 710.379 86.9434C713.016 86.9434 715.037 87.5176 716.443 88.666C717.85 89.8145 718.553 91.5605 718.553 93.9043V107H714.809ZM713.227 97.8945L711.152 97.9648C709.594 98.0117 708.434 98.293 707.672 98.8086C706.91 99.3242 706.529 100.109 706.529 101.164C706.529 102.676 707.396 103.432 709.131 103.432C710.373 103.432 711.363 103.074 712.102 102.359C712.852 101.645 713.227 100.695 713.227 99.5117V97.8945ZM714.334 85.2031C712.494 84.1133 711.123 83.082 710.221 82.1094C709.307 83.0586 707.965 84.0898 706.195 85.2031H702.627V84.7285C704.842 82.5137 706.342 80.75 707.127 79.4375H713.402C713.766 80.0469 714.393 80.8789 715.283 81.9336C716.186 82.9766 717.059 83.9082 717.902 84.7285V85.2031H714.334ZM742.23 107H736.869V95.5215C736.869 94.1035 736.617 93.043 736.113 92.3398C735.609 91.625 734.807 91.2676 733.705 91.2676C732.205 91.2676 731.121 91.7715 730.453 92.7793C729.785 93.7754 729.451 95.4336 729.451 97.7539V107H724.09V87.3477H728.186L728.906 89.8613H729.205C729.803 88.9121 730.623 88.1973 731.666 87.7168C732.721 87.2246 733.916 86.9785 735.252 86.9785C737.537 86.9785 739.271 87.5996 740.455 88.8418C741.639 90.0723 742.23 91.8535 742.23 94.1855V107ZM761.777 107L754.289 87.3477H759.896L763.693 98.5449C764.115 99.9629 764.379 101.305 764.484 102.57H764.59C764.648 101.445 764.912 100.104 765.381 98.5449L769.16 87.3477H774.768L767.279 107H761.777ZM777.369 82.2676C777.369 80.5215 778.342 79.6484 780.287 79.6484C782.232 79.6484 783.205 80.5215 783.205 82.2676C783.205 83.0996 782.959 83.75 782.467 84.2188C781.986 84.6758 781.26 84.9043 780.287 84.9043C778.342 84.9043 777.369 84.0254 777.369 82.2676ZM782.959 107H777.598V87.3477H782.959V107ZM796.74 90.793C795.604 90.793 794.713 91.1562 794.068 91.8828C793.424 92.5977 793.055 93.6172 792.961 94.9414H800.484C800.461 93.6172 800.115 92.5977 799.447 91.8828C798.779 91.1562 797.877 90.793 796.74 90.793ZM797.496 107.352C794.332 107.352 791.859 106.479 790.078 104.732C788.297 102.986 787.406 100.514 787.406 97.3145C787.406 94.0215 788.227 91.4785 789.867 89.6855C791.52 87.8809 793.799 86.9785 796.705 86.9785C799.482 86.9785 801.645 87.7695 803.191 89.3516C804.738 90.9336 805.512 93.1191 805.512 95.9082V98.5098H792.838C792.896 100.033 793.348 101.223 794.191 102.078C795.035 102.934 796.219 103.361 797.742 103.361C798.926 103.361 800.045 103.238 801.1 102.992C802.154 102.746 803.256 102.354 804.404 101.814V105.963C803.467 106.432 802.465 106.777 801.398 107C800.332 107.234 799.031 107.352 797.496 107.352ZM800.906 85.1855C799.066 84.0957 797.695 83.0645 796.793 82.0918C795.879 83.041 794.537 84.0723 792.768 85.1855H789.199V84.7109C791.414 82.4961 792.914 80.7324 793.699 79.4199H799.975C800.338 80.0293 800.965 80.8613 801.855 81.916C802.758 82.959 803.631 83.8906 804.475 84.7109V85.1855H800.906ZM828.012 107H822.65V95.5215C822.65 94.1035 822.398 93.043 821.895 92.3398C821.391 91.625 820.588 91.2676 819.486 91.2676C817.986 91.2676 816.902 91.7715 816.234 92.7793C815.566 93.7754 815.232 95.4336 815.232 97.7539V107H809.871V87.3477H813.967L814.688 89.8613H814.986C815.584 88.9121 816.404 88.1973 817.447 87.7168C818.502 87.2246 819.697 86.9785 821.033 86.9785C823.318 86.9785 825.053 87.5996 826.236 88.8418C827.42 90.0723 828.012 91.8535 828.012 94.1855V107ZM853.816 86.9785C856.137 86.9785 857.953 87.8867 859.266 89.7031C860.578 91.5078 861.234 93.9863 861.234 97.1387C861.234 100.385 860.555 102.898 859.195 104.68C857.848 106.461 856.008 107.352 853.676 107.352C851.367 107.352 849.557 106.514 848.244 104.838H847.875L846.979 107H842.883V79.6484H848.244V86.0117C848.244 86.8203 848.174 88.1152 848.033 89.8965H848.244C849.498 87.9512 851.355 86.9785 853.816 86.9785ZM852.094 91.2676C850.77 91.2676 849.803 91.6777 849.193 92.498C848.584 93.3066 848.268 94.6484 848.244 96.5234V97.1035C848.244 99.2129 848.555 100.725 849.176 101.639C849.809 102.553 850.805 103.01 852.164 103.01C853.266 103.01 854.139 102.506 854.783 101.498C855.439 100.479 855.768 99.002 855.768 97.0684C855.768 95.1348 855.439 93.6875 854.783 92.7266C854.127 91.7539 853.23 91.2676 852.094 91.2676ZM878.145 107L877.107 104.328H876.967C876.064 105.465 875.133 106.256 874.172 106.701C873.223 107.135 871.98 107.352 870.445 107.352C868.559 107.352 867.07 106.812 865.98 105.734C864.902 104.656 864.363 103.121 864.363 101.129C864.363 99.043 865.09 97.5078 866.543 96.5234C868.008 95.5273 870.211 94.9766 873.152 94.8711L876.562 94.7656V93.9043C876.562 91.9121 875.543 90.916 873.504 90.916C871.934 90.916 870.088 91.3906 867.967 92.3398L866.191 88.7188C868.453 87.5352 870.961 86.9434 873.715 86.9434C876.352 86.9434 878.373 87.5176 879.779 88.666C881.186 89.8145 881.889 91.5605 881.889 93.9043V107H878.145ZM876.562 97.8945L874.488 97.9648C872.93 98.0117 871.77 98.293 871.008 98.8086C870.246 99.3242 869.865 100.109 869.865 101.164C869.865 102.676 870.732 103.432 872.467 103.432C873.709 103.432 874.699 103.074 875.438 102.359C876.188 101.645 876.562 100.695 876.562 99.5117V97.8945ZM870.164 111.939C870.164 110.182 871.137 109.303 873.082 109.303C875.027 109.303 876 110.182 876 111.939C876 112.771 875.754 113.416 875.262 113.873C874.77 114.33 874.043 114.559 873.082 114.559C871.137 114.559 870.164 113.686 870.164 111.939ZM905.566 107H900.205V95.5215C900.205 94.1035 899.953 93.043 899.449 92.3398C898.945 91.625 898.143 91.2676 897.041 91.2676C895.541 91.2676 894.457 91.7715 893.789 92.7793C893.121 93.7754 892.787 95.4336 892.787 97.7539V107H887.426V87.3477H891.521L892.242 89.8613H892.541C893.139 88.9121 893.959 88.1973 895.002 87.7168C896.057 87.2246 897.252 86.9785 898.588 86.9785C900.873 86.9785 902.607 87.5996 903.791 88.8418C904.975 90.0723 905.566 91.8535 905.566 94.1855V107ZM938.033 107H932.672V95.5215C932.672 94.1035 932.432 93.043 931.951 92.3398C931.482 91.625 930.738 91.2676 929.719 91.2676C928.348 91.2676 927.352 91.7715 926.73 92.7793C926.109 93.7871 925.799 95.4453 925.799 97.7539V107H920.438V87.3477H924.533L925.254 89.8613H925.553C926.08 88.959 926.842 88.2559 927.838 87.752C928.834 87.2363 929.977 86.9785 931.266 86.9785C934.207 86.9785 936.199 87.9395 937.242 89.8613H937.717C938.244 88.9473 939.018 88.2383 940.037 87.7344C941.068 87.2305 942.229 86.9785 943.518 86.9785C945.744 86.9785 947.426 87.5527 948.562 88.7012C949.711 89.8379 950.285 91.666 950.285 94.1855V107H944.906V95.5215C944.906 94.1035 944.666 93.043 944.186 92.3398C943.717 91.625 942.973 91.2676 941.953 91.2676C940.641 91.2676 939.656 91.7363 939 92.6738C938.355 93.6113 938.033 95.0996 938.033 97.1387V107ZM969.727 107L969.006 104.486H968.725C968.15 105.4 967.336 106.109 966.281 106.613C965.227 107.105 964.025 107.352 962.678 107.352C960.369 107.352 958.629 106.736 957.457 105.506C956.285 104.264 955.699 102.482 955.699 100.162V87.3477H961.061V98.8262C961.061 100.244 961.312 101.311 961.816 102.025C962.32 102.729 963.123 103.08 964.225 103.08C965.725 103.08 966.809 102.582 967.477 101.586C968.145 100.578 968.479 98.9141 968.479 96.5938V87.3477H973.84V107H969.727ZM983.736 97.1387C983.736 99.084 984.053 100.555 984.686 101.551C985.33 102.547 986.373 103.045 987.814 103.045C989.244 103.045 990.27 102.553 990.891 101.568C991.523 100.572 991.84 99.0957 991.84 97.1387C991.84 95.1934 991.523 93.7344 990.891 92.7617C990.258 91.7891 989.221 91.3027 987.779 91.3027C986.35 91.3027 985.318 91.7891 984.686 92.7617C984.053 93.7227 983.736 95.1816 983.736 97.1387ZM997.324 97.1387C997.324 100.338 996.48 102.84 994.793 104.645C993.105 106.449 990.756 107.352 987.744 107.352C985.857 107.352 984.193 106.941 982.752 106.121C981.311 105.289 980.203 104.1 979.43 102.553C978.656 101.006 978.27 99.2012 978.27 97.1387C978.27 93.9277 979.107 91.4316 980.783 89.6504C982.459 87.8691 984.814 86.9785 987.85 86.9785C989.736 86.9785 991.4 87.3887 992.842 88.209C994.283 89.0293 995.391 90.207 996.164 91.7422C996.938 93.2773 997.324 95.0762 997.324 97.1387ZM994.23 85.1855H991.383C990.07 84.3066 988.834 83.334 987.674 82.2676C986.338 83.4512 985.102 84.4238 983.965 85.1855H981.117V84.7109C982.43 83.1875 983.689 81.5469 984.896 79.7891H990.434C991.055 80.7031 991.758 81.6641 992.543 82.6719C993.34 83.668 993.902 84.3477 994.23 84.7109V85.1855ZM992.666 81.3008C993.662 80.2344 994.471 79.0566 995.092 77.7676H999.328V78.1367C998.543 79.1797 997.213 80.3867 995.338 81.7578H992.666V81.3008ZM1019.89 107H1014.53V95.5215C1014.53 94.1035 1014.28 93.043 1013.78 92.3398C1013.27 91.625 1012.47 91.2676 1011.37 91.2676C1009.87 91.2676 1008.79 91.7715 1008.12 92.7793C1007.45 93.7754 1007.12 95.4336 1007.12 97.7539V107H1001.75V87.3477H1005.85L1006.57 89.8613H1006.87C1007.47 88.9121 1008.29 88.1973 1009.33 87.7168C1010.38 87.2246 1011.58 86.9785 1012.92 86.9785C1015.2 86.9785 1016.94 87.5996 1018.12 88.8418C1019.3 90.0723 1019.89 91.8535 1019.89 94.1855V107ZM1043.04 103.08C1043.98 103.08 1045.11 102.875 1046.42 102.465V106.455C1045.08 107.053 1043.44 107.352 1041.5 107.352C1039.35 107.352 1037.79 106.812 1036.8 105.734C1035.83 104.645 1035.35 103.016 1035.35 100.848V91.373H1032.78V89.1055L1035.73 87.3125L1037.28 83.1641H1040.71V87.3477H1046.21V91.373H1040.71V100.848C1040.71 101.609 1040.92 102.172 1041.34 102.535C1041.77 102.898 1042.34 103.08 1043.04 103.08ZM1055.77 107H1050.41V87.3477H1055.77V107ZM1052.41 85.1855C1051.68 84.6699 1050.59 83.8379 1049.16 82.6895C1047.73 81.5293 1046.62 80.5625 1045.82 79.7891V79.4199H1051.83C1052.57 80.6035 1053.95 82.3672 1055.96 84.7109V85.1855H1052.41ZM1079.01 107H1073.65V95.5215C1073.65 94.1035 1073.41 93.043 1072.93 92.3398C1072.46 91.625 1071.71 91.2676 1070.7 91.2676C1069.32 91.2676 1068.33 91.7715 1067.71 92.7793C1067.09 93.7871 1066.78 95.4453 1066.78 97.7539V107H1061.41V87.3477H1065.51L1066.23 89.8613H1066.53C1067.06 88.959 1067.82 88.2559 1068.81 87.752C1069.81 87.2363 1070.95 86.9785 1072.24 86.9785C1075.18 86.9785 1077.18 87.9395 1078.22 89.8613H1078.69C1079.22 88.9473 1079.99 88.2383 1081.01 87.7344C1082.04 87.2305 1083.21 86.9785 1084.49 86.9785C1086.72 86.9785 1088.4 87.5527 1089.54 88.7012C1090.69 89.8379 1091.26 91.666 1091.26 94.1855V107H1085.88V95.5215C1085.88 94.1035 1085.64 93.043 1085.16 92.3398C1084.69 91.625 1083.95 91.2676 1082.93 91.2676C1081.62 91.2676 1080.63 91.7363 1079.98 92.6738C1079.33 93.6113 1079.01 95.0996 1079.01 97.1387V107ZM1096.03 104.486C1096.03 103.502 1096.29 102.758 1096.82 102.254C1097.34 101.75 1098.11 101.498 1099.12 101.498C1100.09 101.498 1100.84 101.756 1101.37 102.271C1101.91 102.787 1102.18 103.525 1102.18 104.486C1102.18 105.412 1101.91 106.145 1101.37 106.684C1100.83 107.211 1100.08 107.475 1099.12 107.475C1098.13 107.475 1097.37 107.217 1096.83 106.701C1096.29 106.174 1096.03 105.436 1096.03 104.486Z" fill="#BDBDBD"/>
</svg>
